<?xml version="1.0" standalone="no"?>
<!DOCTYPE svg PUBLIC "-//W3C//DTD SVG 20010904//EN"
 "http://www.w3.org/TR/2001/REC-SVG-20010904/DTD/svg10.dtd">
<svg version="1.0" xmlns="http://www.w3.org/2000/svg"
 width="640.000000pt" height="640.000000pt" viewBox="0 0 640.000000 640.000000"
 preserveAspectRatio="xMidYMid meet">
<metadata>
Created by potrace 1.14, written by Peter Selinger 2001-2017
</metadata>
<g transform="translate(0.000000,640.000000) scale(0.100000,-0.100000)"
fill="#000000" stroke="none">
<path d="M0 3200 l0 -3200 803 0 802 0 -39 33 -39 33 24 70 c29 85 31 206 5
337 -10 48 -16 92 -14 99 2 6 24 -18 48 -55 24 -37 48 -67 52 -67 14 0 9 12
-18 48 -50 65 -122 227 -149 333 -40 160 -41 161 -62 204 -11 22 -44 119 -73
215 -79 265 -143 447 -199 566 -28 59 -51 115 -51 124 0 10 -7 35 -16 56 -15
37 -15 38 8 56 12 10 37 26 53 35 17 8 43 32 60 52 16 20 59 68 95 107 196
213 299 327 322 359 4 5 25 33 45 60 21 28 49 70 62 95 13 25 27 49 31 53 8 9
40 -96 40 -130 0 -24 24 -48 40 -38 5 3 10 21 10 39 0 46 31 131 87 237 50 96
67 113 120 122 31 6 33 4 54 -41 l22 -47 8 44 c6 32 4 51 -7 72 -14 27 -18 29
-75 29 -59 0 -61 1 -107 50 -71 75 -141 160 -173 210 -16 25 -53 80 -83 122
-36 52 -61 101 -76 150 -11 40 -32 96 -44 123 -13 28 -31 91 -40 140 -17 96
-11 151 30 282 25 78 86 178 109 178 11 1 33 13 49 28 42 39 56 35 56 -16 0
-30 -7 -51 -21 -68 -60 -68 -72 -165 -40 -314 31 -140 75 -199 216 -292 39
-25 84 -62 102 -82 42 -47 44 -22 4 57 -16 31 -36 74 -44 94 l-16 38 37 44
c20 24 42 52 48 62 7 10 14 17 17 14 3 -3 12 -61 22 -130 17 -131 28 -170 45
-170 6 0 38 57 71 126 34 70 65 124 72 121 6 -2 15 -19 19 -38 19 -81 52 -195
58 -204 4 -5 11 -25 15 -43 3 -18 14 -40 23 -49 19 -18 19 -19 21 -69 2 -53
17 -33 46 61 14 46 29 86 34 89 5 3 12 -29 16 -71 8 -91 14 -86 56 51 36 121
124 371 148 421 10 22 31 78 46 125 57 176 54 172 121 197 71 26 104 29 104 8
0 -21 17 -19 30 5 6 11 21 20 35 20 33 0 168 -29 177 -38 4 -4 -5 -23 -20 -42
-62 -77 -76 -205 -31 -279 11 -18 18 -35 16 -37 -10 -11 -35 11 -71 61 -44 60
-56 65 -31 12 31 -65 202 -164 394 -227 96 -32 147 -37 74 -7 -23 9 -44 21
-48 27 -3 5 -22 10 -41 10 -24 0 -34 5 -34 15 0 8 6 15 14 15 21 0 86 70 107
115 10 22 19 65 20 95 1 30 4 67 8 82 l6 27 50 -29 c28 -16 63 -36 78 -45 15
-9 49 -33 76 -53 26 -20 65 -50 87 -66 21 -17 63 -52 92 -80 28 -28 52 -45 52
-38 0 27 -94 153 -172 228 -60 59 -109 96 -177 133 -51 28 -95 51 -97 51 -3 0
-37 15 -77 34 -39 19 -92 39 -117 46 -218 56 -216 56 -193 68 12 7 33 12 47
12 15 0 34 4 44 10 9 5 62 21 117 34 55 13 137 34 181 46 l82 22 66 -39 c99
-57 310 -194 314 -204 2 -5 9 -9 17 -9 7 0 18 -6 24 -14 7 -8 26 -21 44 -30
18 -8 63 -38 101 -66 38 -28 70 -49 73 -46 11 10 -21 49 -80 96 -117 96 -132
106 -197 140 -36 18 -83 44 -105 58 -46 30 -109 62 -179 92 -28 12 -45 24 -40
29 14 13 106 51 379 156 39 14 88 35 110 45 22 10 78 33 125 50 47 17 104 40
128 51 23 10 47 19 52 19 5 0 33 11 62 24 98 44 128 55 142 50 27 -10 167
-271 226 -419 17 -44 40 -99 51 -122 10 -23 46 -127 80 -230 34 -103 65 -197
69 -208 5 -11 11 -31 14 -45 4 -14 13 -50 22 -80 50 -178 74 -283 65 -292 -3
-4 -29 13 -56 38 -89 81 -322 234 -357 234 -9 0 -19 4 -22 9 -11 16 -83 23
-107 10 -21 -11 -16 -14 66 -39 123 -37 183 -68 298 -152 54 -40 116 -86 138
-101 48 -33 69 -78 79 -171 8 -69 8 -70 -43 -175 -35 -73 -52 -100 -55 -86 -7
33 -91 153 -144 205 -52 52 -192 157 -244 183 -38 20 -189 51 -209 43 -25 -9
-17 -22 27 -39 l42 -17 -40 -34 c-45 -38 -64 -86 -64 -159 0 -27 -5 -47 -12
-49 -40 -14 219 -262 332 -318 33 -16 20 -5 -68 60 -73 55 -82 70 -46 80 50
13 93 61 116 128 12 37 23 80 23 96 0 16 5 31 10 33 6 2 46 -29 90 -69 85 -79
127 -151 118 -201 -6 -29 5 -35 25 -15 14 14 16 5 3 -20 -42 -77 -124 -250
-146 -307 -124 -326 -188 -455 -287 -591 -67 -91 -115 -132 -233 -199 -28 -16
-67 -42 -86 -56 -19 -15 -74 -49 -124 -75 -49 -27 -99 -57 -110 -67 -11 -10
-47 -35 -80 -55 -33 -19 -78 -51 -101 -69 -36 -29 -100 -66 -273 -159 -24 -13
-50 -29 -58 -36 -9 -7 -44 -12 -82 -12 -57 0 -76 5 -126 33 -32 18 -65 39 -73
47 -7 8 -17 14 -21 14 -4 0 -25 16 -47 36 -21 19 -76 60 -121 89 -45 30 -84
59 -88 64 -3 6 -31 24 -63 42 -49 28 -94 65 -246 202 -35 31 -51 35 -41 9 3
-9 22 -60 42 -112 19 -52 42 -111 50 -130 9 -19 21 -55 28 -80 8 -25 29 -91
49 -147 20 -56 36 -110 36 -121 0 -10 -12 -30 -27 -44 -29 -27 -104 -68 -124
-68 -27 0 -279 -180 -358 -255 -98 -93 -225 -259 -271 -354 -38 -77 -55 -151
-73 -319 -7 -67 -17 -125 -21 -129 -20 -20 -209 4 -246 31 -27 20 23 -51 75
-106 28 -29 61 -70 75 -90 l25 -38 2208 0 2207 0 0 3200 0 3200 -3200 0 -3200
0 0 -3200z m3380 863 c-1 -28 -27 -56 -45 -49 -40 15 -23 66 21 66 16 0 24 -6
24 -17z m1320 -757 c0 -27 -22 -76 -35 -76 -20 0 -29 39 -14 66 13 26 49 33
49 10z"/>
<path d="M3348 4433 c7 -3 16 -2 19 1 4 3 -2 6 -13 5 -11 0 -14 -3 -6 -6z"/>
<path d="M3390 4421 c1 -7 161 -71 179 -71 6 0 11 -4 11 -9 0 -5 12 -11 28
-14 88 -19 258 -149 362 -276 31 -38 46 -50 48 -39 5 27 -106 163 -169 208
-58 40 -298 160 -322 160 -7 0 -17 4 -22 9 -13 12 -115 41 -115 32z"/>
<path d="M3986 4275 c16 -25 34 -33 34 -17 0 10 -33 42 -44 42 -3 0 1 -11 10
-25z"/>
<path d="M4044 4214 c37 -100 57 -129 56 -81 -1 30 -32 89 -49 95 -10 3 -12 0
-7 -14z"/>
<path d="M1591 3940 c-1 -21 37 -99 38 -79 1 9 -2 19 -6 23 -5 4 -13 22 -20
39 -6 18 -12 25 -12 17z"/>
<path d="M1643 3816 c7 -14 13 -23 15 -21 7 6 -9 45 -18 45 -4 0 -3 -11 3 -24z"/>
<path d="M4600 3825 c-8 -9 -8 -15 -2 -15 12 0 26 19 19 26 -2 2 -10 -2 -17
-11z"/>
<path d="M1670 3781 c0 -6 4 -13 10 -16 6 -3 7 1 4 9 -7 18 -14 21 -14 7z"/>
<path d="M3720 3750 c72 -25 108 -24 50 0 -25 10 -58 19 -75 18 -25 0 -20 -3
25 -18z"/>
<path d="M1706 3730 c6 -8 16 -24 22 -35 6 -11 12 -15 12 -8 0 7 -10 22 -22
35 -13 13 -18 17 -12 8z"/>
<path d="M4696 3731 c-9 -14 -15 -12 74 -17 56 -2 70 -1 57 7 -28 16 -123 24
-131 10z"/>
<path d="M1636 3704 c-8 -20 11 -44 34 -44 26 0 35 32 14 47 -24 18 -41 16
-48 -3z"/>
<path d="M1750 3670 c0 -6 9 -18 20 -27 11 -10 20 -23 20 -29 0 -19 94 -101
146 -127 45 -23 100 -72 154 -136 11 -13 23 -22 26 -19 3 3 -13 27 -36 52 -22
26 -40 50 -41 54 0 4 -27 27 -61 52 -53 40 -138 110 -205 169 -13 11 -23 16
-23 11z"/>
<path d="M4980 3635 c7 -8 17 -15 22 -15 5 0 3 7 -6 15 -8 8 -18 15 -22 15 -3
0 -1 -7 6 -15z"/>
<path d="M4633 3619 c-18 -5 -33 -11 -33 -14 0 -2 32 -4 71 -4 106 1 199 -48
367 -189 34 -29 62 -50 62 -46 0 10 -101 103 -140 130 -19 13 -57 39 -85 59
-104 75 -157 88 -242 64z"/>
<path d="M5026 3611 c-3 -5 1 -11 9 -14 9 -4 12 -1 8 9 -6 16 -10 17 -17 5z"/>
<path d="M1705 3561 c-6 -20 3 -51 15 -51 23 0 40 15 40 35 0 21 -17 35 -40
35 -5 0 -11 -8 -15 -19z"/>
<path d="M4431 3412 c2 -84 31 -202 60 -247 22 -36 24 -23 5 32 -8 22 -14 56
-14 75 0 44 -31 190 -44 203 -6 6 -8 -17 -7 -63z"/>
<path d="M1916 3349 c-19 -28 -7 -61 29 -74 24 -8 30 -6 52 19 l24 28 -22 24
c-28 30 -63 31 -83 3z"/>
<path d="M4970 2960 c-8 -5 -11 -12 -8 -16 10 -9 38 3 38 16 0 12 -10 13 -30
0z"/>
<path d="M2147 2915 c-8 -18 8 -82 24 -99 5 -6 9 -18 9 -28 0 -10 5 -18 10
-18 6 0 10 -10 11 -22 l0 -23 12 23 c8 18 8 25 -2 31 -6 4 -11 12 -10 17 3 13
-13 68 -21 74 -4 3 -11 18 -17 34 -8 26 -10 27 -16 11z"/>
<path d="M4370 2838 c-42 -47 -53 -65 -47 -81 2 -7 9 -1 17 13 7 14 26 42 43
63 39 50 31 54 -13 5z"/>
<path d="M2012 2650 c-14 -53 -55 -380 -47 -388 7 -7 12 11 30 108 8 47 20
110 26 140 6 30 9 84 7 120 l-3 65 -13 -45z"/>
<path d="M2271 2595 c0 -5 18 -30 39 -55 22 -25 40 -40 40 -35 0 6 -18 30 -40
55 -21 25 -39 41 -39 35z"/>
<path d="M3310 2531 c-22 -15 -4 -25 48 -27 27 -1 77 -10 112 -19 36 -9 117
-27 180 -39 63 -13 124 -27 134 -31 13 -6 17 -5 13 3 -4 6 -22 14 -40 17 -17
4 -36 11 -42 14 -5 4 -37 13 -70 21 -33 7 -87 19 -120 27 -33 8 -82 19 -110
23 -27 5 -59 11 -70 14 -11 4 -27 2 -35 -3z"/>
<path d="M3818 2403 c7 -3 16 -2 19 1 4 3 -2 6 -13 5 -11 0 -14 -3 -6 -6z"/>
<path d="M4070 2291 c24 -20 40 -26 40 -16 0 2 -15 12 -32 20 l-33 16 25 -20z"/>
</g>
</svg>
